<?xml version="1.0" standalone="no"?>
<!DOCTYPE svg PUBLIC "-//W3C//DTD SVG 20010904//EN"
 "http://www.w3.org/TR/2001/REC-SVG-20010904/DTD/svg10.dtd">
<svg version="1.0" xmlns="http://www.w3.org/2000/svg"
 width="1200.000000pt" height="1200.000000pt" viewBox="0 0 1200.000000 1200.000000"
 preserveAspectRatio="xMidYMid meet">

<g transform="translate(0.000000,1200.000000) scale(0.100000,-0.100000)"
fill="#000000" stroke="none">
<path d="M0 6000 l0 -6000 1299 0 c1175 0 1299 2 1305 16 3 9 7 32 7 52 1 20
5 51 10 67 8 31 3 -68 -7 -113 l-4 -22 1939 0 1939 0 4 94 c3 88 10 118 24
104 3 -4 8 -49 11 -102 l6 -96 362 0 362 0 7 133 c10 211 24 230 25 35 l1
-168 877 0 876 0 -6 138 c-3 75 -13 206 -22 290 -16 140 -15 176 1 160 24 -24
64 -341 64 -504 l0 -84 54 0 c54 0 55 0 59 33 l4 32 1 -32 2 -33 1400 0 1400
0 0 6000 0 6000 -6000 0 -6000 0 0 -6000z m6420 3440 c40 -5 10 -6 -80 -2 -80
2 -147 6 -149 8 -7 7 161 2 229 -6z m-262 -7 c-15 -2 -42 -2 -60 0 -18 2 -6 4
27 4 33 0 48 -2 33 -4z m-173 -13 c-67 -13 -150 -22 -144 -15 7 7 113 23 154
23 24 0 22 -2 -10 -8z m598 3 c-7 -2 -21 -2 -30 0 -10 3 -4 5 12 5 17 0 24 -2
18 -5z m75 -10 c-10 -2 -28 -2 -40 0 -13 2 -5 4 17 4 22 1 32 -1 23 -4z m55
-10 c-7 -2 -19 -2 -25 0 -7 3 -2 5 12 5 14 0 19 -2 13 -5z m-913 -13 c-14 -4
-36 -8 -50 -8 -22 0 -22 1 5 8 17 4 39 8 50 8 16 0 15 -2 -5 -8z m1045 -11
c24 -10 -48 0 -85 12 -16 6 -10 7 20 3 25 -4 54 -10 65 -15z m-2015 7 c0 -2
-13 -6 -29 -8 -17 -2 -28 -1 -25 4 5 8 54 12 54 4z m28 -41 c-3 -3 -9 2 -12
12 -6 14 -5 15 5 6 7 -7 10 -15 7 -18z m807 16 c-11 -5 -36 -11 -55 -14 -35
-6 -34 -6 5 8 43 14 84 19 50 6z m1300 -12 c14 -6 9 -7 -15 -3 -19 4 -44 11
-55 15 -14 6 -9 7 15 3 19 -4 44 -11 55 -15z m-2225 6 c0 -2 -10 -9 -22 -15
-22 -11 -22 -10 -4 4 21 17 26 19 26 11z m815 -25 c-11 -5 -27 -9 -35 -9 -9 0
-8 4 5 9 11 5 27 9 35 9 9 0 8 -4 -5 -9z m1480 0 c13 -5 14 -9 5 -9 -8 0 -24
4 -35 9 -13 5 -14 9 -5 9 8 0 24 -4 35 -9z m-1575 -29 c-8 -5 -26 -11 -40 -15
-21 -5 -20 -3 5 9 32 15 60 20 35 6z m1690 -13 c10 -6 7 -7 -10 -2 -14 3 -32
11 -40 16 -10 6 -7 7 10 2 14 -3 32 -11 40 -16z m-2346 -23 c-14 -19 -29 -35
-31 -35 -5 0 7 18 36 53 26 31 23 18 -5 -18z m1634 10 c83 -34 48 -45 -143
-45 -280 0 -543 -41 -804 -125 -76 -25 -144 -45 -150 -45 -30 0 -3 21 77 58
258 123 560 184 862 177 79 -2 128 -8 158 -20z m-1808 11 c0 -2 -17 -16 -37
-31 l-38 -26 35 30 c34 31 40 35 40 27z m750 -15 c-8 -5 -26 -11 -40 -15 -21
-5 -20 -3 5 9 32 15 60 20 35 6z m1822 -8 c22 -20 23 -41 1 -65 -12 -13 -32
-18 -77 -19 -51 -1 -56 -3 -31 -10 26 -7 25 -8 -10 -4 -22 3 -51 5 -65 6 -49
3 30 17 101 18 36 0 70 6 77 13 19 19 14 45 -10 62 -12 9 -18 16 -14 16 5 0
18 -7 28 -17z m-587 -12 c3 -5 0 -13 -5 -16 -15 -9 -60 3 -60 15 0 13 57 13
65 1z m-1325 -16 c-14 -8 -29 -14 -35 -14 -5 0 1 6 15 14 14 8 30 14 35 14 6
0 -1 -6 -15 -14z m-793 -60 c-32 -29 -82 -78 -110 -108 -43 -45 -45 -46 -13
-8 39 47 167 170 176 170 3 0 -21 -24 -53 -54z m722 31 c-10 -9 -189 -96 -189
-91 0 6 171 94 184 94 5 1 7 -1 5 -3z m-479 -36 c-6 -11 -13 -20 -16 -20 -2 0
0 9 6 20 6 11 13 20 16 20 2 0 0 -9 -6 -20z m2500 -31 c17 -10 -39 -1 -80 12
-16 6 -10 7 20 3 25 -4 52 -10 60 -15z m-2520 -7 c0 -5 -7 -17 -15 -28 -14
-18 -14 -17 -4 9 12 27 19 34 19 19z m2595 -12 c13 -5 14 -9 5 -9 -8 0 -24 4
-35 9 -13 5 -14 9 -5 9 8 0 24 -4 35 -9z m-2295 -15 c0 -2 -13 -11 -30 -20
-38 -19 -40 -11 -2 9 31 17 32 18 32 11z m2410 -27 c10 -6 7 -7 -10 -2 -14 3
-32 11 -40 16 -10 6 -7 7 10 2 14 -3 32 -11 40 -16z m-2749 -25 c-12 -20 -14
-14 -5 12 4 9 9 14 11 11 3 -2 0 -13 -6 -23z m254 1 c-26 -20 -55 -36 -55 -30
0 5 63 46 70 46 3 -1 -4 -8 -15 -16z m2576 -5 c27 -12 48 -23 46 -25 -2 -3
-28 7 -58 20 -66 31 -57 34 12 5z m-267 -54 c242 -70 547 -236 790 -428 281
-224 623 -644 567 -700 -15 -15 -51 21 -122 124 -195 284 -468 537 -781 724
-147 88 -285 152 -511 236 -89 33 -163 62 -165 64 -2 2 -1 8 2 13 7 13 121 -4
220 -33z m-2960 -57 c-25 -35 -49 -65 -52 -68 -11 -9 30 54 60 93 48 60 42 42
-8 -25z m3351 52 c3 -6 -1 -7 -9 -4 -18 7 -21 14 -7 14 6 0 13 -4 16 -10z
m-2991 -44 c-3 -15 -8 -25 -11 -23 -2 3 -1 17 3 31 3 15 8 25 11 23 2 -3 1
-17 -3 -31z m166 30 c0 -3 -15 -14 -32 -26 l-33 -22 30 26 c31 27 35 29 35 22z
m3048 -118 c39 -27 72 -51 72 -54 0 -2 -33 17 -72 44 -40 27 -99 64 -130 82
-32 17 -58 34 -58 37 0 8 106 -54 188 -109z m-3118 68 c0 -2 -8 -10 -17 -17
-16 -13 -17 -12 -4 4 13 16 21 21 21 13z m-114 -57 c-5 -29 -4 -30 12 -18 9 7
26 20 38 29 11 8 2 -2 -20 -22 -22 -20 -42 -36 -44 -34 -5 6 9 76 15 76 3 0 3
-14 -1 -31z m-436 -79 c-11 -22 -23 -40 -25 -40 -3 0 4 18 15 40 11 22 23 40
25 40 3 0 -4 -18 -15 -40z m3816 -42 c4 -7 -9 1 -29 16 -20 16 -37 30 -37 33
0 7 58 -36 66 -49z m-3853 -23 c-3 -9 -8 -14 -10 -11 -3 3 -2 9 2 15 9 16 15
13 8 -4z m4110 -205 c76 -74 172 -175 214 -225 41 -49 49 -61 17 -25 -75 84
-342 351 -419 419 l-60 53 55 -43 c30 -24 117 -104 193 -179z m-4147 123 c-8
-15 -15 -25 -16 -21 0 12 23 58 27 54 3 -2 -2 -17 -11 -33z m-27 -72 c-6 -18
-13 -30 -15 -28 -2 2 1 18 7 36 6 18 13 30 15 28 2 -2 -1 -18 -7 -36z m-30
-95 c-6 -21 -12 -36 -14 -34 -3 2 0 21 6 42 6 21 12 36 14 34 3 -2 0 -21 -6
-42z m-30 -122 c-6 -32 -13 -61 -16 -64 -3 -3 -3 13 1 35 12 72 18 96 22 92 2
-2 -1 -30 -7 -63z m-50 -98 c-10 -9 -109 -56 -109 -51 0 6 91 54 104 55 5 0 7
-2 5 -4z m-124 -64 c-27 -24 -116 -82 -110 -73 6 11 106 81 114 81 3 0 1 -4
-4 -8z m4741 -39 c21 -26 33 -44 27 -40 -14 9 -77 87 -70 87 3 0 22 -21 43
-47z m-4866 -46 c0 -1 -30 -32 -67 -67 l-68 -65 65 68 c60 62 70 72 70 64z
m4981 -99 c35 -45 59 -79 53 -76 -5 4 -38 44 -73 89 -36 45 -60 79 -54 76 5
-3 39 -43 74 -89z m-5111 -41 c0 -2 -10 -12 -22 -23 l-23 -19 19 23 c18 21 26
27 26 19z m5315 -208 l60 -66 -70 71 c-38 39 -85 91 -103 116 -33 44 -33 44 9
-5 24 -27 71 -80 104 -116z m-5418 52 c-23 -44 -43 -78 -45 -76 -4 3 43 99 66
133 28 43 20 21 -21 -57z m5167 0 c28 -29 28 -51 1 -51 -8 0 -21 13 -30 30
-29 56 -15 67 29 21z m-4899 -71 c-27 -12 -43 -12 -25 0 8 5 22 9 30 9 10 0 8
-3 -5 -9z m-45 -15 c0 -2 -10 -9 -22 -15 -22 -11 -22 -10 -4 4 21 17 26 19 26
11z m-92 -65 c-26 -23 -75 -71 -109 -108 -34 -37 -48 -49 -31 -26 34 44 168
174 180 174 4 0 -14 -18 -40 -40z m5422 -17 c0 -8 -38 17 -51 33 -9 11 -2 9
19 -6 17 -13 32 -25 32 -27z m-5626 -7 c-3 -15 -8 -25 -11 -23 -2 3 -1 17 3
31 3 15 8 25 11 23 2 -3 1 -17 -3 -31z m476 14 c-6 -11 -13 -20 -16 -20 -2 0
0 9 6 20 6 11 13 20 16 20 2 0 0 -9 -6 -20z m1686 -32 c-299 -182 -519 -396
-626 -609 l-40 -78 -47 21 c-56 24 -170 108 -228 168 l-40 41 25 20 c121 96
358 231 555 315 99 43 457 172 479 173 5 1 -30 -23 -78 -51z m3534 -14 c0 -2
-13 2 -30 11 -16 9 -30 18 -30 21 0 2 14 -2 30 -11 17 -9 30 -18 30 -21z
m-5277 -59 c-20 -41 -39 -73 -41 -71 -4 5 66 146 73 146 3 0 -12 -34 -32 -75z
m5317 14 c0 -10 -4 -20 -9 -23 -5 -4 -7 3 -4 14 3 11 -1 28 -8 38 -13 15 -12
16 4 3 9 -7 17 -22 17 -32z m-5756 -4 c-4 -23 -2 -41 7 -53 12 -16 12 -16 -5
0 -14 13 -17 24 -12 52 4 20 9 36 12 36 3 0 2 -16 -2 -35z m5511 -49 c165 0
167 -1 71 -9 -56 -5 -141 -5 -197 0 -55 5 -99 7 -99 5 0 -1 7 -15 16 -30 15
-25 15 -26 -1 -7 -9 11 -21 28 -26 38 -9 17 -7 17 28 10 21 -4 115 -8 208 -7z
m208 7 c-7 -2 -19 -2 -25 0 -7 3 -2 5 12 5 14 0 19 -2 13 -5z m-5332 -80 c-12
-20 -14 -14 -5 12 4 9 9 14 11 11 3 -2 0 -13 -6 -23z m4799 -40 c138 -156 185
-365 144 -640 -23 -151 -16 -271 19 -342 34 -70 35 -101 4 -101 -30 0 -50 22
-78 85 -31 70 -36 184 -13 336 22 155 22 293 0 379 -21 77 -82 210 -125 274
-59 86 -26 92 49 9z m160 6 c12 -23 20 -43 18 -45 -3 -2 -14 17 -26 41 -27 56
-20 60 8 4z m44 -109 c5 -17 4 -20 -2 -10 -5 8 -13 26 -16 40 -5 17 -4 20 2
10 5 -8 13 -26 16 -40z m-5067 -42 c-3 -8 -6 -5 -6 6 -1 11 2 17 5 13 3 -3 4
-12 1 -19z m5101 -78 c0 -9 -3 -7 -8 5 -5 11 -8 29 -8 40 0 16 2 15 8 -5 4
-14 8 -32 8 -40z m-5129 -44 c-7 -31 -14 -54 -16 -52 -3 2 1 30 7 61 6 31 14
55 16 52 2 -2 -1 -29 -7 -61z m5149 -216 c0 -188 -6 -161 -10 55 -2 94 -1 152
3 130 5 -22 8 -105 7 -185z m-5183 20 c-12 -90 -13 -94 -9 -30 6 88 16 159 21
145 1 -6 -4 -57 -12 -115z m4159 -112 c-42 -78 -220 -252 -321 -312 -172 -102
-460 -162 -480 -100 -5 16 38 30 131 44 155 23 333 99 463 196 40 30 107 95
149 144 43 50 79 88 81 86 3 -3 -8 -29 -23 -58z m-3084 -39 c143 -116 273
-179 440 -213 95 -19 112 -26 178 -73 186 -131 424 -221 692 -260 157 -22 439
-20 626 5 119 16 159 17 260 9 110 -10 246 -3 404 19 33 4 32 3 -20 -25 -30
-16 -89 -42 -130 -57 -90 -33 -102 -41 -98 -68 4 -26 64 -42 218 -57 190 -19
442 4 610 55 95 29 258 97 324 136 l69 40 51 -39 c28 -21 64 -46 79 -56 27
-17 28 -22 22 -64 -10 -74 -51 -228 -115 -434 -170 -554 -207 -792 -220 -1442
-8 -429 -15 -487 -79 -650 -83 -216 -276 -408 -541 -539 -212 -106 -630 -250
-800 -277 -111 -17 -259 -7 -353 25 -159 54 -405 196 -524 303 l-82 74 37 33
c45 40 313 260 327 268 6 3 44 -3 85 -13 99 -26 323 -36 455 -20 106 12 287
47 445 86 52 12 170 40 263 60 l167 38 23 -21 c35 -33 96 -55 113 -41 25 21
16 48 -23 68 -54 27 -83 62 -97 117 -14 55 -36 75 -61 54 -16 -13 -17 -45 -4
-99 3 -10 -10 -17 -41 -23 -25 -5 -99 -22 -165 -38 -224 -53 -323 -65 -545
-64 -174 0 -219 4 -297 22 -50 12 -102 26 -115 31 -13 6 -93 39 -179 75 -186
78 -232 84 -280 37 -43 -44 -40 -84 12 -133 23 -22 40 -40 38 -42 -2 -1 -73
-60 -157 -131 l-153 -128 -190 189 c-148 147 -304 316 -336 363 -4 7 -41 -42
-65 -87 -13 -23 -27 -41 -32 -39 -5 2 -29 29 -54 60 -42 53 -44 59 -32 82 12
22 11 28 -3 42 -15 15 -20 12 -76 -39 -97 -90 -199 -128 -344 -128 -133 0
-302 55 -438 142 -91 58 -91 59 -68 126 11 31 36 82 56 112 50 76 180 200 210
200 15 0 27 8 32 23 5 13 26 36 48 52 21 16 68 58 105 93 l66 64 8 -48 c11
-76 -2 -242 -26 -319 -30 -96 -31 -129 -4 -133 17 -2 25 7 42 55 50 136 65
309 41 449 -10 56 -8 70 10 124 25 72 27 165 6 238 -15 48 -14 54 3 89 64 128
86 251 79 447 -4 130 -10 170 -40 287 -27 101 -129 387 -165 459 -1 3 16 30
38 59 96 127 167 298 191 456 8 56 16 82 23 78 6 -4 31 -23 56 -44z m4113
-224 c3 -39 2 -59 -3 -45 -4 14 -10 77 -13 140 -6 119 5 56 16 -95z m-403 4
c0 -16 -58 -65 -145 -124 -181 -121 -420 -225 -515 -225 -95 0 -61 22 140 90
145 48 299 125 420 210 89 61 100 67 100 49z m-4777 -204 c4 -45 3 -58 -3 -37
-4 18 -10 77 -13 130 -6 107 6 39 16 -93z m5216 40 c0 -5 -4 -3 -9 5 -5 8 -9
22 -9 30 0 16 17 -16 18 -35z m-1991 29 c34 -9 26 -24 -12 -24 -42 0 -68 9
-60 21 6 10 39 12 72 3z m2127 -192 c11 -7 6 -6 -11 2 -27 13 -104 88 -104
101 0 3 21 -16 48 -43 26 -26 56 -53 67 -60z m-210 67 c10 -15 -1 -23 -20 -15
-9 3 -13 10 -10 16 8 13 22 13 30 -1z m-5128 -71 c-3 -7 -5 -2 -5 12 0 14 2
19 5 13 2 -7 2 -19 0 -25z m5393 -22 c6 -8 10 -25 7 -38 -4 -21 -4 -20 -6 4 0
15 -9 32 -18 37 -10 6 -13 11 -7 11 6 0 17 -7 24 -14z m-5377 -51 c4 -34 3
-42 -3 -25 -8 25 -13 87 -6 79 2 -2 6 -26 9 -54z m3897 35 c0 -5 -11 -10 -25
-10 -14 0 -25 5 -25 10 0 6 11 10 25 10 14 0 25 -4 25 -10z m1465 -59 c-6 -5
-26 -11 -45 -15 -35 -5 -35 -5 5 9 50 17 51 17 40 6z m-115 -33 c-14 -5 -74
-11 -135 -11 -98 -2 -111 -4 -123 -22 -11 -17 -13 -17 -8 -2 3 10 6 22 6 26 0
3 33 5 73 3 39 -2 97 1 127 6 73 13 90 13 60 0z m-5216 -88 c4 -30 3 -36 -3
-20 -12 37 -22 109 -12 85 5 -11 11 -40 15 -65z m4930 -19 c-9 -23 -18 -40
-20 -38 -2 2 4 22 13 45 9 23 18 40 20 38 2 -2 -4 -22 -13 -45z m-4917 -53
c-3 -8 -6 -5 -6 6 -1 11 2 17 5 13 3 -3 4 -12 1 -19z m4884 -25 c-12 -20 -14
-14 -5 12 4 9 9 14 11 11 3 -2 0 -13 -6 -23z m-4863 -53 c0 -9 -3 -7 -8 5 -5
11 -8 29 -8 40 0 16 2 15 8 -5 4 -14 8 -32 8 -40z m4833 -17 c-11 -21 -20 -35
-21 -31 0 12 33 78 38 74 2 -2 -6 -21 -17 -43z m-4807 -73 c4 -24 3 -29 -3
-15 -4 11 -11 36 -15 55 -4 24 -3 29 3 15 4 -11 11 -36 15 -55z m4777 7 c-10
-9 -11 -8 -5 6 3 10 9 15 12 12 3 -3 0 -11 -7 -18z m-11 -25 c0 -5 -7 -17 -15
-28 -14 -18 -14 -17 -4 9 12 27 19 34 19 19z m-4741 -72 c0 -9 -4 -8 -9 5 -5
11 -9 27 -9 35 0 9 4 8 9 -5 5 -11 9 -27 9 -35z m4692 -23 c-10 -9 -11 -8 -5
6 3 10 9 15 12 12 3 -3 0 -11 -7 -18z m-50 -91 l-40 -74 51 -6 c67 -9 57 -17
-13 -9 l-55 5 44 79 c25 44 47 79 49 79 3 0 -13 -33 -36 -74z m-4630 17 c-76
-58 -147 -124 -182 -171 -56 -75 -66 -84 -43 -43 23 41 134 156 190 197 27 20
39 36 37 49 l-3 20 9 -20 c7 -15 4 -23 -8 -32z m409 -85 c34 -22 82 -66 106
-97 45 -57 108 -191 102 -217 -3 -14 -23 8 -198 217 -121 144 -124 174 -10 97z
m4365 -49 c5 -5 -6 -4 -25 2 -45 15 -54 24 -15 15 17 -4 34 -12 40 -17z m71
-38 c21 -16 57 -48 79 -72 35 -39 34 -38 -15 8 -30 28 -71 61 -90 72 -19 12
-30 21 -24 21 6 0 29 -13 50 -29z m-94 -43 c78 -36 133 -89 170 -167 30 -61
33 -76 36 -184 5 -150 -14 -263 -78 -459 -78 -237 -154 -373 -248 -445 -49
-37 -138 -67 -174 -58 l-23 6 8 262 c4 144 12 280 18 301 12 43 62 100 82 94
24 -9 15 -115 -18 -199 -8 -20 21 -51 44 -47 25 5 60 121 60 198 1 65 -22 134
-55 171 -22 24 -9 44 60 93 34 24 80 62 103 85 23 24 58 47 76 52 43 11 52 31
28 60 l-17 21 -120 -42 c-157 -56 -169 -58 -184 -29 -19 35 -6 130 29 204 23
49 26 65 15 65 -20 0 -18 20 4 26 9 3 24 10 32 15 24 14 92 4 152 -23z m-5004
-63 c-6 -14 -13 -23 -15 -21 -5 5 15 46 22 46 3 0 -1 -11 -7 -25z m-30 -66
c-6 -16 -12 -28 -14 -26 -5 5 13 57 20 57 3 0 0 -14 -6 -31z m5311 -89 c0 -8
-7 1 -14 20 -18 46 -17 64 0 25 8 -16 14 -37 14 -45z m-5340 11 c-6 -18 -13
-30 -15 -28 -2 2 1 18 7 36 6 18 13 30 15 28 2 -2 -1 -18 -7 -36z m5348 -73
c-3 -7 -5 -2 -5 12 0 14 2 19 5 13 2 -7 2 -19 0 -25z m-5376 -24 c-5 -21 -9
-30 -10 -19 -1 24 10 67 15 62 3 -2 0 -22 -5 -43z m5380 -170 l-10 -49 4 49
c3 27 6 79 7 115 l2 66 3 -66 c2 -37 -1 -89 -6 -115z m-5394 94 c-3 -7 -5 -2
-5 12 0 14 2 19 5 13 2 -7 2 -19 0 -25z m-10 -230 c-2 -35 -3 -7 -3 62 0 69 1
97 3 63 2 -35 2 -91 0 -125z m5387 15 c-4 -27 -11 -57 -15 -68 -9 -21 -9 -12
7 78 9 54 16 45 8 -10z m-5366 -193 c0 -22 -1 -22 -8 5 -4 17 -8 39 -8 50 0
16 2 15 8 -5 4 -14 8 -36 8 -50z m5329 38 c-3 -8 -6 -5 -6 6 -1 11 2 17 5 13
3 -3 4 -12 1 -19z m-37 -115 c-11 -17 -11 -17 -6 0 3 10 6 24 7 30 0 9 2 9 5
0 3 -7 0 -20 -6 -30z m-5251 -68 c0 -5 -4 -3 -9 5 -5 8 -9 22 -9 30 0 16 17
-16 18 -35z m5230 6 c-6 -18 -13 -30 -15 -28 -2 2 1 18 7 36 6 18 13 30 15 28
2 -2 -1 -18 -7 -36z m-5172 -133 c18 -38 31 -68 28 -68 -7 0 -71 130 -79 160
l-6 25 12 -25 c6 -14 27 -55 45 -92z m5144 65 c-12 -20 -14 -14 -5 12 4 9 9
14 11 11 3 -2 0 -13 -6 -23z m-50 -109 c-16 -33 -36 -68 -45 -79 -9 -11 3 17
27 62 23 45 43 80 45 78 2 -2 -10 -29 -27 -61z m-4996 -119 c27 -38 87 -108
134 -155 73 -72 77 -76 23 -31 -63 54 -171 181 -206 243 -27 47 -8 25 49 -57z
m4903 -27 c-19 -23 -49 -53 -68 -67 -19 -14 -5 4 31 41 74 77 86 86 37 26z
m-108 -93 c0 -7 -57 -35 -72 -35 -7 0 5 9 27 19 48 23 45 22 45 16z m-257 -32
c-7 -2 -14 -23 -15 -46 -1 -39 -2 -39 -5 -9 -5 41 2 62 19 61 10 0 10 -2 1 -6z
m-4108 -193 c142 -69 205 -84 355 -85 143 0 221 20 312 81 28 19 54 31 57 26
54 -82 266 -308 386 -410 28 -24 16 -16 -25 16 -41 33 -113 99 -160 146 -46
47 -88 86 -92 86 -15 0 -40 -153 -35 -219 5 -68 10 -85 72 -235 32 -76 37 -97
33 -146 -3 -49 -2 -57 11 -53 25 8 -43 -34 -109 -67 -88 -44 -167 -40 -331 20
-174 62 -331 195 -458 385 -114 171 -172 310 -191 457 -5 45 -15 87 -22 95 -7
8 13 1 42 -16 30 -17 100 -53 155 -81z m4082 38 c-3 -7 -5 -2 -5 12 0 14 2 19
5 13 2 -7 2 -19 0 -25z m-17 -88 l-11 -25 6 25 c2 14 5 36 6 50 l2 25 4 -25
c2 -14 -1 -37 -7 -50z m-2165 -42 l25 -11 -27 -29 c-34 -35 -50 -35 -93 1 -31
25 -33 30 -20 46 15 18 66 16 115 -7z m2144 -42 c-6 -21 -12 -36 -14 -34 -3 2
0 21 6 42 6 21 12 36 14 34 3 -2 0 -21 -6 -42z m-2013 -24 c22 -17 21 -18
-106 -119 l-128 -102 -21 23 -22 23 113 96 c62 53 120 96 128 96 8 0 25 -7 36
-17z m201 -67 c48 -14 131 -31 183 -39 l95 -13 -68 -8 c-72 -8 -195 -1 -287
16 -86 16 -86 16 -60 44 29 31 29 31 137 0z m1742 -87 c-73 -143 -226 -309
-364 -393 -43 -27 -21 -8 67 59 123 92 253 247 297 355 8 17 16 30 18 27 2 -2
-6 -24 -18 -48z m-2247 -85 c24 -22 23 -31 -9 -57 -48 -37 -364 -309 -470
-404 -56 -51 -105 -92 -107 -92 -3 0 -3 7 0 15 5 13 2 14 -19 6 -17 -7 -30 -6
-41 2 -14 11 17 41 231 223 136 117 277 237 313 267 36 31 69 56 74 56 5 1 18
-6 28 -16z m-452 -120 c0 -7 -89 59 -103 76 -7 8 14 -5 46 -28 31 -24 57 -45
57 -48z m80 -54 c0 -3 -26 -28 -57 -55 -73 -62 -93 -78 -93 -72 0 2 32 30 70
62 69 57 70 59 53 79 -18 19 -17 20 5 6 12 -8 22 -17 22 -20z m-215 -149 c-11
-5 -27 -9 -35 -9 -9 0 -8 4 5 9 11 5 27 9 35 9 9 0 8 -4 -5 -9z m-100 -30
c-27 -12 -43 -12 -25 0 8 5 22 9 30 9 10 0 8 -3 -5 -9z m2505 5 c0 -2 -13 -11
-30 -20 -38 -19 -40 -11 -2 9 31 17 32 18 32 11z m-2550 -19 c0 -2 -13 -9 -30
-15 -35 -12 -41 -5 -7 9 25 10 37 12 37 6z m2455 -36 c-3 -5 -12 -10 -18 -10
-7 0 -6 4 3 10 19 12 23 12 15 0z m-113 -53 c-12 -7 -19 -16 -16 -20 4 -4 -2
-7 -14 -7 -12 0 -22 2 -22 5 0 6 53 34 65 34 6 0 0 -5 -13 -12z m93 -48 c14
-6 9 -7 -15 -3 -19 4 -44 11 -55 15 -14 6 -9 7 15 3 19 -4 44 -11 55 -15z
m-2720 -7 c-53 -42 -60 -46 -33 -19 16 15 31 27 35 27 4 0 3 -3 -2 -8z m2815
-22 c18 -12 2 -12 -25 0 -13 6 -15 9 -5 9 8 0 22 -4 30 -9z m70 -30 c8 -5 11
-10 5 -10 -5 0 -17 5 -25 10 -8 5 -10 10 -5 10 6 0 17 -5 25 -10z m-2552 -14
c-7 -8 -16 -12 -21 -9 -11 7 2 23 19 23 12 0 12 -2 2 -14z m-405 -11 c-3 -9
-8 -14 -10 -11 -3 3 -2 9 2 15 9 16 15 13 8 -4z m3027 -5 c21 -11 41 -24 45
-29 4 -8 -77 32 -94 46 -13 10 15 0 49 -17z m-3043 -57 c-3 -10 -5 -4 -5 12 0
17 2 24 5 18 2 -7 2 -21 0 -30z m1428 -20 c158 -47 337 -52 558 -16 33 5 37 3
37 -15 0 -52 0 -52 -184 -52 -182 0 -515 25 -530 40 -5 5 -5 25 -2 45 6 29 11
35 24 29 9 -4 53 -18 97 -31z m1696 20 c13 -16 12 -17 -3 -4 -10 7 -18 15 -18
17 0 8 8 3 21 -13z m-3107 -39 c3 -8 2 -12 -4 -9 -6 3 -10 10 -10 16 0 14 7
11 14 -7z m3141 -24 c7 -33 -9 -92 -29 -110 -8 -6 -5 7 7 31 17 35 19 48 10
80 -5 21 -7 36 -2 34 4 -3 10 -19 14 -35z m-3105 -25 c13 -14 21 -25 18 -25
-2 0 -15 11 -28 25 -13 14 -21 25 -18 25 2 0 15 -11 28 -25z m2961 -4 c-20
-37 -123 -121 -188 -153 -47 -23 -84 -33 -129 -36 -73 -5 -110 3 -83 18 9 5
54 21 100 36 97 30 173 67 244 118 56 40 70 45 56 17z m-2921 -24 c0 -1 -24
-25 -52 -52 l-53 -50 50 53 c46 48 55 57 55 49z m758 -76 c177 -74 339 -120
512 -146 135 -19 150 -23 150 -37 0 -16 -190 -4 -317 21 -199 38 -483 151
-491 194 -5 26 17 21 146 -32z m1327 -27 c43 -46 65 -126 76 -273 10 -134 7
-201 -11 -201 -19 0 -23 29 -25 174 -2 161 -11 204 -60 278 -14 21 -25 40 -25
43 0 13 23 2 45 -21z m926 13 c-6 -8 -7 -18 -3 -22 4 -5 1 -5 -6 -1 -10 6 -10
11 -1 22 6 8 14 14 16 14 3 0 0 -6 -6 -13z m120 -149 c19 -38 25 -113 10 -136
-4 -7 -6 11 -3 41 5 65 -11 101 -77 172 l-46 50 48 -45 c27 -25 57 -62 68 -82z
m-716 82 c3 -6 -1 -13 -10 -16 -19 -8 -30 0 -20 15 8 14 22 14 30 1z m-2558
-50 c-7 -24 -19 -45 -27 -48 -10 -2 -11 -1 -4 5 7 4 17 28 24 52 6 23 13 41
16 39 2 -3 -2 -24 -9 -48z m3095 -1 c46 -25 54 -97 17 -158 -46 -76 -370 -248
-426 -227 -16 7 -15 9 7 26 14 11 45 27 70 36 81 30 204 95 257 135 80 60 105
127 63 169 -31 31 -26 39 12 19z m-3197 -69 c-11 -5 -27 -9 -35 -9 -9 0 -8 4
5 9 11 5 27 9 35 9 9 0 8 -4 -5 -9z m-94 -26 c-25 -8 -47 -12 -49 -9 -5 5 56
23 78 23 8 0 -5 -6 -29 -14z m-76 -24 c-11 -5 -27 -9 -35 -9 -9 0 -8 4 5 9 11
5 27 9 35 9 9 0 8 -4 -5 -9z m-130 -40 c-27 -12 -43 -12 -25 0 8 5 22 9 30 9
10 0 8 -3 -5 -9z m-75 -25 c-46 -18 -64 -17 -25 0 17 8 37 14 45 14 8 0 -1 -7
-20 -14z m3721 -53 c-11 -16 -28 -35 -38 -43 -9 -8 -2 5 17 29 38 48 52 57 21
14z m-3871 -1 c-8 -5 -26 -11 -40 -15 -21 -5 -20 -3 5 9 32 15 60 20 35 6z
m1424 -66 c219 -74 436 -116 729 -141 74 -6 97 -17 60 -28 -112 -32 -435 -4
-663 58 -147 40 -273 88 -317 122 -82 62 -13 58 191 -11z m-1504 35 c-8 -5
-19 -10 -25 -10 -5 0 -3 5 5 10 8 5 20 10 25 10 6 0 3 -5 -5 -10z m-70 -30
c-8 -5 -19 -10 -25 -10 -5 0 -3 5 5 10 8 5 20 10 25 10 6 0 3 -5 -5 -10z
m3990 -14 c0 -2 -9 -2 -20 1 -11 3 -20 9 -20 15 0 5 9 4 20 -2 11 -6 20 -12
20 -14z m-4051 -10 c-10 -9 -169 -86 -169 -81 0 6 151 84 164 85 5 0 7 -2 5
-4z m4106 -16 c3 -6 -1 -7 -9 -4 -18 7 -21 14 -7 14 6 0 13 -4 16 -10z m60
-30 c3 -6 -1 -7 -9 -4 -18 7 -21 14 -7 14 6 0 13 -4 16 -10z m40 -28 c-3 -3
-11 0 -18 7 -9 10 -8 11 6 5 10 -3 15 -9 12 -12z m-777 -4 c-6 -18 -28 -21
-28 -4 0 9 7 16 16 16 9 0 14 -5 12 -12z m852 -163 c367 -222 569 -399 709
-619 35 -57 42 -106 13 -106 -22 0 -45 25 -94 101 -56 86 -181 231 -265 307
-102 92 -281 225 -400 296 -175 107 -263 165 -263 177 0 12 159 -71 300 -156z
m40 110 c0 -3 -22 6 -50 20 -27 14 -50 28 -50 30 0 3 23 -6 50 -20 28 -14 50
-28 50 -30z m-4500 40 c0 -2 -10 -9 -22 -15 -22 -11 -22 -10 -4 4 21 17 26 19
26 11z m-85 -51 c-26 -20 -55 -36 -55 -30 0 5 63 46 70 46 3 -1 -4 -8 -15 -16z
m3395 -4 c0 -11 -4 -20 -10 -20 -5 0 -10 9 -10 20 0 11 5 20 10 20 6 0 10 -9
10 -20z m1260 -26 c0 -2 -13 2 -30 11 -16 9 -30 18 -30 21 0 2 14 -2 30 -11
17 -9 30 -18 30 -21z m-4720 -8 c0 -2 -30 -26 -67 -53 -38 -27 -101 -77 -140
-111 -64 -55 -95 -89 -218 -233 -16 -19 -26 -28 -20 -19 29 46 154 187 214
241 58 52 220 179 229 179 1 0 2 -2 2 -4z m4770 -22 c0 -2 -9 0 -20 6 -11 6
-20 13 -20 16 0 2 9 0 20 -6 11 -6 20 -13 20 -16z m165 -106 c49 -35 137 -110
196 -168 103 -102 103 -103 10 -14 -102 96 -172 152 -288 229 -40 26 -73 50
-73 52 0 7 49 -25 155 -99z m-1138 -426 c3 -236 3 -441 -1 -456 -9 -35 -36
-34 -37 2 -4 88 3 871 8 891 16 68 24 -45 30 -437z m-207 198 c0 -177 -3 -210
-21 -210 -6 0 -9 71 -9 173 2 181 6 230 21 221 5 -3 9 -86 9 -184z m-630 23
c0 -49 5 -231 12 -406 8 -227 8 -321 1 -328 -23 -23 -31 31 -39 246 -7 237 3
575 17 575 5 0 9 -39 9 -87z m446 -56 c30 -31 37 -59 19 -83 -13 -16 -16 -17
-25 -4 -5 8 -10 25 -10 37 0 25 -27 43 -64 43 -28 0 -33 9 -13 29 17 17 67 6
93 -22z m1893 -92 c47 -65 31 -56 -20 13 -23 31 -36 52 -28 45 8 -7 30 -33 48
-58z m-5775 10 c-9 -14 -18 -25 -21 -25 -5 0 5 18 20 38 17 22 18 13 1 -13z
m3881 -55 c3 -5 -1 -10 -9 -10 -9 0 -16 5 -16 10 0 6 4 10 9 10 6 0 13 -4 16
-10z m-3935 -30 c-6 -11 -13 -20 -16 -20 -2 0 0 9 6 20 6 11 13 20 16 20 2 0
0 -9 -6 -20z m5900 -30 c6 -11 8 -20 6 -20 -3 0 -10 9 -16 20 -6 11 -8 20 -6
20 3 0 10 -9 16 -20z m-5972 -105 c-23 -46 -44 -83 -46 -81 -4 5 76 166 83
166 3 0 -14 -38 -37 -85z m6044 -30 c28 -58 49 -107 47 -109 -2 -2 -27 45 -56
105 -28 60 -50 109 -47 109 3 0 28 -47 56 -105z m-1859 53 c7 -26 -1 -68 -13
-68 -10 0 -23 67 -15 80 10 17 22 11 28 -12z m-4252 -165 c-12 -20 -14 -14 -5
12 4 9 9 14 11 11 3 -2 0 -13 -6 -23z m-22 -62 c-6 -18 -13 -30 -15 -28 -2 2
1 18 7 36 6 18 13 30 15 28 2 -2 -1 -18 -7 -36z m6211 -6 c0 -5 -5 -3 -10 5
-5 8 -10 20 -10 25 0 6 5 3 10 -5 5 -8 10 -19 10 -25z m-2133 -5 c59 -35 84
-110 41 -118 -14 -3 -18 3 -18 27 0 30 -38 71 -66 71 -16 0 -27 17 -19 30 9
15 26 12 62 -10z m2029 -26 c10 -24 12 -40 6 -46 -11 -11 -35 20 -47 60 -11
38 24 26 41 -14z m133 -64 c0 -8 -7 1 -14 20 -18 46 -17 64 0 25 8 -16 14 -37
14 -45z m-6268 29 c-5 -13 -10 -19 -10 -12 -1 15 10 45 15 40 3 -2 0 -15 -5
-28z m4316 -316 c-5 -246 -9 -293 -27 -293 -17 0 -19 55 -10 265 11 237 16
285 33 285 7 0 8 -82 4 -257z m-197 222 c0 -8 -7 -15 -15 -15 -8 0 -15 7 -15
15 0 8 7 15 15 15 8 0 15 -7 15 -15z m2167 -7 c-3 -8 -6 -5 -6 6 -1 11 2 17 5
13 3 -3 4 -12 1 -19z m-6323 -22 c-3 -15 -8 -25 -11 -23 -2 3 -1 17 3 31 3 15
8 25 11 23 2 -3 1 -17 -3 -31z m-20 -75 c-4 -17 -9 -30 -11 -27 -3 2 -2 19 2
36 9 41 17 33 9 -9z m6375 -20 c1 -35 -5 -22 -12 24 -5 28 -4 34 3 20 5 -11 9
-31 9 -44z m-1806 -18 c2 -54 -8 -77 -23 -53 -18 28 -7 131 12 112 5 -5 10
-32 11 -59z m-823 -37 c0 -19 -4 -38 -10 -41 -6 -4 -10 10 -10 34 0 23 5 41
10 41 6 0 10 -15 10 -34z m2637 2 c-3 -8 -6 -5 -6 6 -1 11 2 17 5 13 3 -3 4
-12 1 -19z m-6416 -54 c-5 -21 -9 -30 -10 -19 -1 24 10 67 15 62 3 -2 0 -22
-5 -43z m6426 -6 c-3 -7 -5 -2 -5 12 0 14 2 19 5 13 2 -7 2 -19 0 -25z m16
-83 c4 -39 3 -50 -2 -30 -9 31 -14 102 -7 94 2 -2 6 -31 9 -64z m-6456 23 c-3
-8 -6 -5 -6 6 -1 11 2 17 5 13 3 -3 4 -12 1 -19z m-18 -102 c-6 -37 -13 -65
-16 -63 -2 3 1 35 8 71 6 37 13 65 16 63 2 -3 -1 -35 -8 -71z m4248 -51 c28
-28 34 -41 31 -67 -4 -46 -29 -42 -42 7 -8 28 -20 44 -41 55 -17 8 -32 16 -34
17 -1 1 0 6 4 12 12 21 47 11 82 -24z m2256 -150 c4 -79 3 -92 -2 -45 -13 102
-21 242 -11 195 4 -22 10 -89 13 -150z m-6526 73 c-3 -7 -5 -2 -5 12 0 14 2
19 5 13 2 -7 2 -19 0 -25z m-12 -83 c-3 -31 -9 -55 -11 -52 -3 2 -2 30 2 61 4
31 9 54 12 52 2 -3 1 -30 -3 -61z m4279 4 c-3 -5 -10 -7 -15 -3 -5 3 -7 10 -3
15 3 5 10 7 15 3 5 -3 7 -10 3 -15z m176 -121 c0 -54 -10 -89 -21 -82 -10 6
-12 68 -3 102 10 37 24 25 24 -20z"/>
<path d="M7385 5329 c-291 -12 -365 -20 -378 -41 -8 -12 -7 -21 2 -32 12 -14
33 -15 157 -9 l144 6 0 -64 c1 -200 95 -371 245 -445 49 -24 75 -30 147 -32
77 -4 93 -1 147 23 146 66 221 213 221 431 l0 103 38 3 c34 3 37 6 37 33 l0
30 -275 1 c-151 1 -369 -3 -485 -7z m534 -199 c40 -41 49 -88 25 -137 -39 -78
-136 -95 -194 -33 -75 80 -21 200 91 200 40 0 52 -5 78 -30z"/>
<path d="M5545 5278 c-176 -4 -330 -12 -343 -18 -14 -6 -22 -17 -20 -28 3 -15
18 -17 149 -16 l146 1 6 -116 c6 -134 27 -208 86 -299 122 -188 378 -253 546
-137 122 84 180 215 192 438 l6 117 33 0 c38 0 58 24 43 52 -9 17 -30 18 -267
16 -141 0 -401 -5 -577 -10z m598 -216 c55 -55 46 -150 -19 -201 -19 -15 -41
-21 -80 -21 -46 0 -57 4 -87 33 -58 54 -62 129 -9 188 49 55 140 56 195 1z"/>
<path d="M6742 5198 c-28 -28 -7 -211 38 -330 26 -71 87 -141 141 -162 23 -9
77 -21 120 -27 132 -16 211 -64 263 -158 98 -181 -28 -421 -221 -421 -30 0
-66 6 -81 14 -41 22 -94 82 -154 176 -63 99 -90 120 -152 120 -40 0 -52 -6
-97 -46 -91 -81 -159 -93 -211 -36 -50 53 -42 129 16 159 48 24 56 42 31 67
-30 30 -113 -23 -141 -90 -19 -46 -17 -91 6 -139 23 -47 58 -76 114 -95 54
-17 108 -6 193 40 40 22 80 40 91 40 24 0 48 -27 105 -121 83 -135 169 -193
287 -192 89 0 161 35 233 113 76 81 101 148 102 265 0 77 -4 98 -27 147 -33
71 -105 144 -179 181 -34 17 -98 35 -163 47 -60 10 -119 26 -132 35 -60 39
-110 169 -120 314 -5 61 -11 90 -22 99 -20 15 -25 15 -40 0z"/>
<path d="M7491 4482 c-7 -14 -5 -26 9 -47 31 -48 34 -96 9 -155 -20 -46 -20
-53 -7 -67 52 -51 117 91 89 193 -21 78 -76 120 -100 76z"/>
</g>
</svg>
